<svg id="Capa_1" enable-background="new 0 0 512 512" height="512" viewBox="0 0 512 512" width="512" xmlns="http://www.w3.org/2000/svg"><g><g><g><path d="m253.908 78.017h-199.324c-4.149 0-7.511 3.363-7.511 7.511 0 4.149 3.362 7.511 7.511 7.511h199.324c4.149 0 7.511-3.363 7.511-7.511s-3.362-7.511-7.511-7.511z"/><path d="m432.013 373.138c-1.234-.436-2.489-.888-3.747-1.353v-25.245c2.639 1.029 4.178 2.323 4.308 2.435l.73.529c3.081 2.232 7.344 1.807 9.923-.99 3.098-3.359 2.48-8.65-1.259-11.276-3.978-2.793-8.149-5.142-13.702-6.301v-4.311c0-4.113-3.17-7.7-7.281-7.822-4.254-.127-7.741 3.283-7.741 7.508v4.914c-.715.171-1.436.357-2.17.578-9.118 2.747-15.927 10.533-17.772 20.32-3.063 16.242 6.557 23.762 19.942 29.78v33.096c-3.886-.427-6.657-1.567-11.024-4.399-3.434-2.226-8.141-1.559-10.5 1.785-2.464 3.493-1.525 8.301 2.022 10.621 7.623 4.986 12.917 6.605 19.502 7.073v4.71c0 4.113 3.17 7.7 7.281 7.822 4.254.127 7.741-3.283 7.741-7.508v-5.912c26.651-7.093 32.772-45.795 3.747-56.054zm-23.949-18.232c.517-2.743 2.141-5.961 5.18-7.764v17.902c-3.397-2.037-6.339-3.988-5.18-10.138zm20.202 58.158v-25.263c11.895 5.152 9.044 19.946 0 25.263z"/><path d="m420.32 289.027c-50.553 0-91.68 41.128-91.68 91.68s41.128 91.68 91.68 91.68 91.68-41.126 91.68-91.679-41.128-91.681-91.68-91.681zm0 168.339c-42.269 0-76.658-34.389-76.658-76.658s34.389-76.658 76.658-76.658 76.658 34.389 76.658 76.658-34.39 76.658-76.658 76.658z"/><path d="m320.832 431.248h-295.403c-5.738 0-10.406-4.668-10.406-10.406v-289.397h439.315v141.787c0 4.149 3.362 7.511 7.511 7.511s7.511-3.363 7.511-7.511c0-23.964 0-181.023 0-208.191 0-14.021-11.408-25.429-25.429-25.429h-418.502c-14.021 0-25.429 11.407-25.429 25.429v355.801c0 14.021 11.408 25.429 25.429 25.429h295.403c4.149 0 7.511-3.362 7.511-7.511.001-4.149-3.362-7.512-7.511-7.512zm-305.809-366.207c0-5.738 4.668-10.406 10.406-10.406h418.502c5.738 0 10.406 4.668 10.406 10.406v51.381h-439.314z"/><path d="m343.768 64.493c-11.6 0-21.036 9.436-21.036 21.036 0 11.599 9.436 21.035 21.036 21.035 11.599 0 21.035-9.436 21.035-21.035 0-11.6-9.436-21.036-21.035-21.036zm0 27.048c-3.316 0-6.013-2.697-6.013-6.012 0-3.316 2.697-6.013 6.013-6.013 3.315 0 6.012 2.697 6.012 6.013 0 3.314-2.697 6.012-6.012 6.012z"/><path d="m399.924 64.493c-11.599 0-21.035 9.436-21.035 21.036 0 11.599 9.436 21.035 21.035 21.035s21.035-9.436 21.035-21.035c0-11.6-9.436-21.036-21.035-21.036zm0 27.048c-3.315 0-6.012-2.697-6.012-6.012 0-3.316 2.697-6.013 6.012-6.013s6.012 2.697 6.012 6.013c0 3.314-2.697 6.012-6.012 6.012z"/><path d="m115.297 387.261h14.752c8.56 0 15.839-5.835 17.702-14.188l12.912-57.899 16.071-.001h.014c25.566 0 60.98 5.409 86.369 30.731v3.73c0 13.301 10.765 24.068 24.069 24.066 13.269-.001 24.065-10.799 24.065-24.069l-.016-171.058c0-13.301-10.765-24.068-24.069-24.066-13.3.002-24.067 10.766-24.065 24.069v3.734c-25.391 25.331-60.81 30.742-86.377 30.744l-78.046.006c-9.916.002-18.249 6.813-20.631 15.996h-1.282c-20.12.001-36.487 16.371-36.486 36.491.002 20.163 16.315 36.487 36.486 36.487h.005 2.219c3.032 7.262 9.968 12.484 18.17 13.07v54.023c.001 9.997 8.138 18.134 18.138 18.134zm17.791-17.458c-.32 1.434-1.569 2.435-3.039 2.435h-14.752c-1.717 0-3.114-1.397-3.114-3.114v-53.947l33.087-.003zm154.08-200.274c4.997 0 9.044 4.043 9.044 9.044l.016 171.058c0 4.987-4.057 9.044-9.044 9.045-4.998 0-9.044-4.043-9.044-9.044l-.016-171.059c0-4.999 4.045-9.044 9.044-9.044zm-110.441 58.546c34.656-.002 64.143-8.897 86.377-25.872l.011 123.805c-22.233-16.969-51.716-25.859-86.367-25.859-.005 0-.011 0-.017 0h-3.552l-.006-72.074zm-99.957 58.934c-.001 0-.002 0-.003 0-11.861 0-21.464-9.6-21.464-21.464-.001-11.837 9.628-21.467 21.464-21.468h.578l.004 42.932zm15.602 6.732-.005-57.162c0-.005.001-.011.001-.016s-.001-.011-.001-.016v-2.152c0-3.482 2.832-6.315 6.314-6.315l59.47-.004.006 72.074c-24.574.002-49.244.004-59.47.005-6.21.001-6.268-6.314-6.315-6.414z"/></g></g></g></svg>